<svg id="Layer_1" enable-background="new 0 0 512 512" height="512" viewBox="0 0 512 512" width="512" xmlns="http://www.w3.org/2000/svg"><path d="m496.999 442h-17.577c1.665-4.695 2.58-9.741 2.58-15 0-24.219-19.235-44.021-43.229-44.955v-18.201c0-54.266-43.158-98.65-97.006-100.757 5.499-7.565 10.023-15.881 13.389-24.764 6.474 3.611 13.922 5.677 21.846 5.677 24.813 0 45-20.187 45-45v-27c0-19.614-12.618-36.326-30.158-42.473-3.391-71.996-63.022-129.527-135.843-129.527s-132.451 57.531-135.842 129.527c-17.541 6.148-30.158 22.86-30.158 42.473v27c0 24.813 20.187 45 45 45 7.924 0 15.372-2.066 21.845-5.677 3.366 8.883 7.89 17.199 13.389 24.764-53.847 2.108-97.005 46.492-97.005 100.757v18.201c-23.994.935-43.229 20.737-43.229 44.956 0 5.258.915 10.304 2.58 14.999h-17.58c-8.284 0-15 6.716-15 15v40c0 8.284 6.716 15 15 15s15-6.716 15-15v-25h451.997v25c0 8.284 6.716 15 15 15s15-6.716 15-15v-40c.001-8.284-6.715-15-14.999-15zm-316.998-269.515c5.582 1.072 11.283 1.615 17.074 1.615 21.971 0 42.708-7.847 58.926-21.945 16.218 14.099 36.955 21.945 58.926 21.945 5.784 0 11.485-.556 17.074-1.63v28.361c0 41.946-34.093 76.071-76 76.071s-76-34.125-76-76.071zm3.718-29.883c9.907-30.493 38.556-52.602 72.282-52.602 33.723 0 62.371 22.106 72.28 52.595-4.349.988-8.811 1.504-13.354 1.504-18.493 0-35.678-8.342-47.147-22.888-2.845-3.606-7.185-5.712-11.779-5.712s-8.934 2.105-11.778 5.712c-11.47 14.546-28.654 22.888-47.147 22.888-4.551.001-9.012-.51-13.357-1.497zm72.282 164.299c20.87 0 40.349-6.07 56.771-16.533-8.107 23.828-30.507 40.484-56.769 40.484-26.346 0-48.696-16.638-56.778-40.486 16.424 10.465 35.905 16.535 56.776 16.535zm136.001-107.901c0 8.271-6.729 15-15 15s-15-6.729-15-15v-27c0-8.271 6.729-15 15-15s15 6.729 15 15zm-136.001-169c56.315 0 102.506 44.146 105.804 99.647-1.864.671-3.667 1.467-5.408 2.368-14.21-41.834-53.847-72.015-100.396-72.015s-86.186 30.181-100.396 72.014c-1.741-.901-3.544-1.697-5.408-2.368 3.298-55.5 49.489-99.646 105.804-99.646zm-121 184c-8.271 0-15-6.729-15-15v-27c0-8.271 6.729-15 15-15 8.268 0 14.994 6.723 15 14.99v27.02c-.005 8.267-6.732 14.99-15 14.99zm33.845 79.225c4.303 16.812 13.371 32.083 26.352 43.979 16.641 15.249 38.235 23.647 60.805 23.647 22.433 0 43.93-8.31 60.531-23.397 13.115-11.919 22.289-27.291 26.627-44.229 36.64 2.765 65.611 33.369 65.611 70.618v18.157h-67.772c-24.813 0-45 20.188-45 45.001 0 5.258.915 10.304 2.58 14.999h-85.16c1.665-4.695 2.58-9.741 2.58-15 0-24.813-20.187-45-45-45h-67.77v-18.156c0-37.251 28.974-67.857 65.616-70.619zm-93.845 148.775c-8.271 0-15-6.729-15-15s6.729-15 15-15h96.001c8.271 0 15 6.729 15 15.001 0 8.271-6.729 14.999-15 14.999zm266 0c-8.271 0-15-6.729-15-15s6.729-15 15-15h96.001c8.271 0 15 6.729 15 15.001 0 8.271-6.729 14.999-15 14.999z"/></svg>