<?xml version="1.0"?>
<svg xmlns="http://www.w3.org/2000/svg" viewBox="0 0 64 64" width="512" height="512"><g id="Gardener-2" data-name="Gardener"><rect x="19" y="19" width="2" height="2"/><rect x="29" y="19" width="2" height="2"/><path d="M38,56h1V54H38V52h1V50H38a1.993,1.993,0,0,0-1-1.722V40.551l.683.214a9.055,9.055,0,0,1,.918.341l.8-1.834a11.186,11.186,0,0,0-1.12-.417L30,36.265V32.782A10.932,10.932,0,0,0,36,23V22a2.987,2.987,0,0,0,2.22-5H40a3,3,0,0,0,0-6H36V5.21a3,3,0,0,0-3.3-2.985l-6.8.68a8.49,8.49,0,0,1-1.8,0l-6.8-.679A3,3,0,0,0,14,5.21V11H10a3,3,0,0,0,0,6h1.78A2.987,2.987,0,0,0,14,22v1a10.987,10.987,0,0,0,6,9.788v3.477l-8.277,2.59A10.94,10.94,0,0,0,4,49.35V50H3a1,1,0,0,0-1,1v4a1,1,0,0,0,1,1H4v5a1,1,0,0,0,1,1H41V60H38ZM15,39.926l2-.626V49a1,1,0,0,1-1,1,.974.974,0,0,1-.712-.306A.957.957,0,0,1,15,49ZM14,51.214A2.935,2.935,0,0,0,16,52a3,3,0,0,0,2.816-2H31.184A3,3,0,0,0,34,52a2.93,2.93,0,0,0,2-.783V60H14ZM35,49a.974.974,0,0,1-.306.712A.957.957,0,0,1,34,50a1,1,0,0,1-1-1V39.3l2,.625ZM31,38.674V48H19V38.674l1.193-.373a4.973,4.973,0,0,0,9.614,0Zm-9-5.1a10.692,10.692,0,0,0,6,0V37a3,3,0,0,1-6,0ZM36,20V18a1,1,0,0,1,0,2ZM16.331,4.467a.98.98,0,0,1,.77-.252l6.8.68a10.543,10.543,0,0,0,2.2,0l6.8-.68a1,1,0,0,1,1.1,1V7H16V5.21A.987.987,0,0,1,16.331,4.467ZM16,9H34v2H16ZM9,14a1,1,0,0,1,1-1H40a1,1,0,0,1,0,2H10A1,1,0,0,1,9,14Zm4,5a1,1,0,0,1,1-1v2A1,1,0,0,1,13,19Zm3,4V17H34v6a9,9,0,0,1-18,0ZM6,49.35a8.948,8.948,0,0,1,6.319-8.585L13,40.552v7.726A1.993,1.993,0,0,0,12,50H6ZM4,52h8v2H4Zm2,4h6v4H6Z"/><path d="M55,30a4,4,0,1,0-4,4A4,4,0,0,0,55,30Zm-6,0a2,2,0,1,1,2,2A2,2,0,0,1,49,30Z"/><path d="M61,48H52V46.528a6.824,6.824,0,0,0,2.035.323,6.611,6.611,0,0,0,3.293-.872A6.751,6.751,0,0,0,60.672,40a1,1,0,0,0-.484-.84,6.743,6.743,0,0,0-6.844-.123A6.515,6.515,0,0,0,52,40.073V38.861A3.974,3.974,0,0,0,54.107,37.5,3.967,3.967,0,0,0,58.5,33.107a3.968,3.968,0,0,0,0-6.214A3.967,3.967,0,0,0,54.107,22.5a3.968,3.968,0,0,0-6.214,0A3.967,3.967,0,0,0,43.5,26.893a3.968,3.968,0,0,0,0,6.214A3.967,3.967,0,0,0,47.893,37.5,3.974,3.974,0,0,0,50,38.861v1.212a6.515,6.515,0,0,0-1.344-1.032,6.748,6.748,0,0,0-6.844.123,1,1,0,0,0-.484.84,6.751,6.751,0,0,0,3.344,5.975,6.611,6.611,0,0,0,3.293.872A6.824,6.824,0,0,0,50,46.528V48H41a1,1,0,0,0-1,1v4a1,1,0,0,0,1,1h1.117l.891,7.124A1,1,0,0,0,44,62H58a1,1,0,0,0,.992-.876L59.883,54H61a1,1,0,0,0,1-1V49A1,1,0,0,0,61,48Zm-6.66-7.225a4.721,4.721,0,0,1,4.307-.167,4.646,4.646,0,0,1-6.623,3.8A4.723,4.723,0,0,1,54.34,40.775Zm-5.1-4.854a1,1,0,0,0-.886-.534.981.981,0,0,0-.3.045,1.976,1.976,0,0,1-2.49-2.49,1,1,0,0,0-.489-1.182,1.975,1.975,0,0,1,0-3.52,1,1,0,0,0,.489-1.182,1.976,1.976,0,0,1,2.49-2.49,1,1,0,0,0,1.182-.489,1.975,1.975,0,0,1,3.52,0,1,1,0,0,0,1.182.489,1.976,1.976,0,0,1,2.49,2.49,1,1,0,0,0,.489,1.182,1.975,1.975,0,0,1,0,3.52,1,1,0,0,0-.489,1.182,1.976,1.976,0,0,1-2.49,2.49,1,1,0,0,0-1.182.489,1.975,1.975,0,0,1-3.52,0Zm-3.572,8.323a4.716,4.716,0,0,1-2.315-3.636,4.645,4.645,0,0,1,6.623,3.8A4.717,4.717,0,0,1,45.668,44.244ZM57.117,60H44.883l-.75-6H57.867ZM60,52H42V50H60Z"/><path d="M30,27V25a3,3,0,0,0-3-3H23a3,3,0,0,0-3,3v2a1,1,0,0,0,1,1h8A1,1,0,0,0,30,27Zm-2-1H22V25a1,1,0,0,1,1-1h4a1,1,0,0,1,1,1Z"/></g></svg>
