<?xml version="1.0"?>
<svg xmlns="http://www.w3.org/2000/svg" xmlns:xlink="http://www.w3.org/1999/xlink" version="1.1" id="Capa_1" x="0px" y="0px" viewBox="0 0 512 512" style="enable-background:new 0 0 512 512;" xml:space="preserve" width="512px" height="512px"><g><g>
	<g>
		<path d="M100.471,437.979c-1.4-1.399-3.33-2.199-5.3-2.199c-1.98,0-3.91,0.8-5.31,2.199c-1.4,1.4-2.2,3.33-2.2,5.301    c0,1.979,0.8,3.909,2.2,5.31c1.4,1.39,3.33,2.19,5.31,2.19c1.97,0,3.9-0.801,5.3-2.19c1.39-1.4,2.19-3.33,2.19-5.31    C102.661,441.309,101.861,439.37,100.471,437.979z" data-original="#000000" class="active-path" data-old_color="#000000" fill="#1F845B"/>
	</g>
</g><g>
	<g>
		<path d="M118.805,247c-4.142,0-7.5,3.357-7.5,7.5v10.376c0,4.143,3.358,7.5,7.5,7.5c4.142,0,7.5-3.357,7.5-7.5V254.5    C126.305,250.357,122.947,247,118.805,247z" data-original="#000000" class="active-path" data-old_color="#000000" fill="#1F845B"/>
	</g>
</g><g>
	<g>
		<path d="M208.805,247c-4.142,0-7.5,3.357-7.5,7.5v10.376c0,4.143,3.358,7.5,7.5,7.5c4.142,0,7.5-3.357,7.5-7.5V254.5    C216.305,250.357,212.947,247,208.805,247z" data-original="#000000" class="active-path" data-old_color="#000000" fill="#1F845B"/>
	</g>
</g><g>
	<g>
		<path d="M185.538,296.965c-3.982-1.141-8.135,1.16-9.277,5.142c-1.587,5.53-6.708,9.394-12.457,9.394    c-5.748,0-10.87-3.863-12.456-9.394c-1.142-3.981-5.292-6.285-9.277-5.142c-3.981,1.142-6.283,5.295-5.142,9.276    c3.421,11.928,14.473,20.259,26.876,20.259s23.454-8.331,26.875-20.259C191.822,302.26,189.52,298.106,185.538,296.965z" data-original="#000000" class="active-path" data-old_color="#000000" fill="#1F845B"/>
	</g>
</g><g>
	<g>
		<path d="M172.805,274.54h-7.06v-16.664c0-4.143-3.358-7.5-7.5-7.5c-4.142,0-7.5,3.357-7.5,7.5v20.164    c0,6.341,5.159,11.5,11.5,11.5h10.56c4.142,0,7.5-3.357,7.5-7.5S176.947,274.54,172.805,274.54z" data-original="#000000" class="active-path" data-old_color="#000000" fill="#1F845B"/>
	</g>
</g><g>
	<g>
		<path d="M172.111,380.7c-1.4-1.4-3.33-2.2-5.31-2.2c-1.97,0-3.9,0.8-5.3,2.2c-1.4,1.39-2.2,3.319-2.2,5.3c0,1.97,0.8,3.91,2.2,5.3    c1.4,1.4,3.33,2.2,5.3,2.2c1.98,0,3.91-0.8,5.31-2.2c1.39-1.39,2.19-3.33,2.19-5.3C174.301,384.02,173.501,382.09,172.111,380.7z" data-original="#000000" class="active-path" data-old_color="#000000" fill="#1F845B"/>
	</g>
</g><g>
	<g>
		<path d="M448.008,473.485h-11.58c0.378-1.912,0.587-3.888,0.587-5.914c0-5.26-2.012-13.068-2.241-13.942l-0.186-0.603    c-2.116-5.962-5.602-11.688-10.36-17.019c-2.759-3.091-7.5-3.36-10.589-0.602c-3.09,2.759-3.359,7.5-0.601,10.59    c3.375,3.782,5.833,7.735,7.309,11.755c0.594,2.334,1.669,7.313,1.669,9.82c0,2.106-0.423,4.104-1.171,5.914h-91.813    c-0.057-4.175-1.551-9.83-1.856-10.94c-0.058-0.21-0.125-0.417-0.201-0.622c-6.429-17.333-27.322-30.876-54.808-37.034    c7.258-2.561,15.152-4.618,23.48-6.084c-0.402,2.385,0.353,4.92,2.244,6.706c1.449,1.369,3.3,2.048,5.148,2.048    c1.991,0,3.978-0.788,5.454-2.35l8.273-8.759c2.815-0.138,5.653-0.216,8.514-0.216c0.141,0,0.281,0.005,0.422,0.006l-3.822,4.03    c-2.85,3.006-2.724,7.753,0.282,10.603c1.45,1.376,3.306,2.058,5.159,2.058c1.986,0,3.969-0.784,5.444-2.34l12.536-13.22    c2.768,0.313,5.506,0.69,8.205,1.133l-2.77,2.926c-2.848,3.008-2.718,7.755,0.29,10.603c1.45,1.373,3.305,2.054,5.155,2.054    c1.988,0,3.973-0.786,5.448-2.344l8.153-8.611c0.258-0.272,0.483-0.564,0.693-0.863c7.603,2.161,14.726,4.865,21.156,8.097    c3.702,1.859,8.209,0.368,10.069-3.334c1.86-3.701,0.367-8.209-3.334-10.068c-20.181-10.142-46.137-15.727-73.086-15.727    c-5.426,0-10.753,0.236-15.976,0.661V386.35c0-12.717-10.362-23.063-23.1-23.063h-62.21v-27.642    c18.117-13.54,31.524-33.025,37.293-55.529c0.778,0.063,1.563,0.103,2.357,0.103c15.892,0,28.82-12.906,28.82-28.771v-18.676    c0-15.606-12.515-28.341-28.051-28.751v-2.577c4.973-1.651,8.574-6.339,8.574-11.859v-25.916c0-6.454-4.917-11.781-11.203-12.433    v-17.238c2.358-1.336,4.627-2.838,6.78-4.489c3.287-2.521,3.908-7.229,1.387-10.516c-2.52-3.287-7.229-3.906-10.515-1.387    c-2.57,1.971-5.358,3.653-8.289,5.003c-0.065,0.03-0.122,0.07-0.186,0.103c-0.018,0.008-0.037,0.013-0.055,0.021    c-5.647,2.557-11.684,3.853-17.943,3.853c-4.142,0-7.5,3.357-7.5,7.5s3.358,7.5,7.5,7.5c4.712,0,9.329-0.568,13.82-1.656v11.239    h-44.142c0.428-2.326,0.664-4.719,0.664-7.167c0-21.78-17.72-39.5-39.5-39.5c-21.78,0-39.5,17.72-39.5,39.5    c0,2.448,0.235,4.841,0.664,7.167H80.825v-11.26c4.434,1.082,9.057,1.677,13.82,1.677c4.142,0,7.5-3.357,7.5-7.5    s-3.358-7.5-7.5-7.5c-8.716,0-16.834-2.581-23.645-7.004v0.019c-12.205-7.92-19.815-21.603-19.815-36.355    c0-23.898,19.496-43.341,43.46-43.341c6.76,0,13.246,1.513,19.277,4.495c1.83,0.904,3.948,1.023,5.866,0.334    c1.919-0.691,3.475-2.136,4.307-3.998C131.077,25.101,146.664,15,163.805,15s32.729,10.101,39.711,25.733    c0.832,1.862,2.387,3.307,4.307,3.998c1.919,0.689,4.038,0.571,5.866-0.334c6.031-2.982,12.517-4.495,19.277-4.495    c23.964,0,43.46,19.442,43.46,43.341c0,3.686-0.464,7.345-1.379,10.876c-1.039,4.01,1.369,8.103,5.379,9.141    c4.008,1.043,8.103-1.369,9.142-5.379c1.233-4.759,1.858-9.684,1.858-14.638c0-32.169-26.225-58.341-58.46-58.341    c-6.611,0-13.031,1.078-19.164,3.211C203.297,10.83,184.383,0,163.805,0c-20.577,0-39.492,10.83-49.996,28.113    c-6.133-2.133-12.552-3.211-19.164-3.211c-32.235,0-58.46,26.172-58.46,58.341c0,21.041,11.487,40.463,29.64,50.753v17.238    c-6.286,0.651-11.203,5.979-11.203,12.433v25.916c0,5.521,3.601,10.207,8.573,11.858v2.578    c-15.536,0.41-28.05,13.145-28.05,28.751v18.676c0,15.864,12.928,28.771,28.819,28.771c0.794,0,1.579-0.039,2.356-0.103    c5.769,22.504,19.177,41.99,37.294,55.53v27.641h-62.21c-12.738,0-23.101,10.347-23.101,23.063v112.964    c0,6.996,5.697,12.688,12.7,12.688h417.003c6.893,0,12.5-5.607,12.5-12.5v-13.515C460.508,479.093,454.9,473.485,448.008,473.485z     M50.146,251.446V232.77c0-7.334,5.789-13.33,13.05-13.731v36.207c0,3.359,0.169,6.681,0.494,9.957    C56.197,265.055,50.146,258.946,50.146,251.446z M252.944,378.285h33.261c4.466,0,8.1,3.617,8.1,8.063v17.383    c-15.047,2.476-28.794,6.724-40.523,12.4c-0.275-0.142-0.551-0.282-0.838-0.403V378.285z M230.065,378.285h7.88v36.446h-7.88    V378.285z M225.806,436.777c2.827-0.234,5.721-0.399,8.697-0.472l-4.224,4.252c-2.919,2.938-2.903,7.688,0.036,10.606    c1.463,1.453,3.374,2.179,5.285,2.179c1.928,0,3.856-0.739,5.321-2.215l13.868-13.962c2.472,0.275,4.882,0.609,7.225,0.999    l-2.934,2.953c-2.919,2.938-2.903,7.687,0.035,10.606c1.463,1.453,3.374,2.179,5.286,2.179c1.927,0,3.855-0.739,5.321-2.215    l9.341-9.403c18.182,5.928,30.158,15.396,33.735,24.559c0.52,1.969,1.164,5.072,1.227,6.642H162.558    c0.062-1.61,0.724-4.729,1.228-6.645c3.769-9.649,16.851-19.636,36.686-25.47c-1.648,2.873-1.245,6.6,1.217,9.045    c1.463,1.453,3.374,2.179,5.285,2.179c1.928,0,3.855-0.739,5.321-2.215L225.806,436.777z M215.065,378.146v36.586h-20.88v-49.801    c0-3.064-1.865-5.821-4.709-6.962l-5.511-2.209l25.031-10.033v25.059C208.995,374.438,211.607,377.477,215.065,378.146z     M163.805,119.5c13.509,0,24.5,10.99,24.5,24.5s-10.991,24.5-24.5,24.5c-13.509,0-24.5-10.99-24.5-24.5    S150.295,119.5,163.805,119.5z M69.622,166.167h61.507c7.114,10.453,19.105,17.333,32.675,17.333s25.562-6.88,32.675-17.333    h61.508v20.916H69.622V166.167z M249.414,202.083v1.97c-8.362,3.496-17.133,5.584-26.184,6.288    c2.822-2.588,5.499-5.347,8.022-8.258H249.414z M180.315,202.083h29.581c-15.188,12.611-34.55,19.86-54.824,19.86    c-1.004,0-2.004-0.018-3.003-0.052C162.501,216.992,172.064,210.306,180.315,202.083z M109.234,216.442    c-10.749,0-21.167-1.943-31.039-5.784v-8.575h78.498C142.834,211.309,126.395,216.442,109.234,216.442z M78.195,255.246v-28.677    c9.972,3.233,20.368,4.873,31.039,4.873c3.783,0,7.536-0.212,11.246-0.627c11.077,4.05,22.699,6.128,34.592,6.128    c16.991,0,33.432-4.342,47.942-12.205c4.416,0.588,8.892,0.89,13.418,0.89c11.378,0,22.426-1.857,32.981-5.525V225    c0,4.143,3.358,7.5,7.5,7.5c4.142,0,7.5-3.357,7.5-7.5v-5.961c7.262,0.401,13.051,6.397,13.051,13.731v18.676    c0,7.5-6.052,13.608-13.545,13.757c0.325-3.276,0.494-6.598,0.494-9.957c0-4.143-3.358-7.5-7.5-7.5c-4.142,0-7.5,3.357-7.5,7.5    c0,47.086-38.404,85.393-85.609,85.393S78.195,302.332,78.195,255.246z M89.665,378.285h7.88v36.446h-7.88V378.285z     M74.665,415.729c-4.559,1.928-7.765,6.442-7.765,11.69V497h-3.596v-49.256c0-4.143-3.358-7.5-7.5-7.5c-4.142,0-7.5,3.357-7.5,7.5    V497h-15V386.349c0-4.446,3.634-8.063,8.101-8.063h33.26V415.729z M114.721,485.985V497h-32.82v-67.269h34.1    c4.142,0,7.5-3.357,7.5-7.5s-3.358-7.5-7.5-7.5h-3.456v-36.586c3.458-0.668,6.07-3.707,6.07-7.36v-25.058l13.274,5.32l0.001,0.001    l47.294,18.956v44.727h-4.897c-0.069-1.886-0.849-3.705-2.176-5.031c-1.4-1.4-3.33-2.2-5.31-2.2c-1.97,0-3.9,0.8-5.3,2.2    c-1.337,1.326-2.118,3.146-2.186,5.031h-12.314c-4.142,0-7.5,3.357-7.5,7.5s3.358,7.5,7.5,7.5h41.003    c-19.227,7.192-33.321,18.509-38.396,32.191c-0.076,0.205-0.143,0.412-0.201,0.622c-0.305,1.11-1.799,6.766-1.856,10.94h-20.33    C120.328,473.485,114.721,479.093,114.721,485.985z M445.508,497H129.721v-8.515h315.787V497z" data-original="#000000" class="active-path" data-old_color="#000000" fill="#1F845B"/>
	</g>
</g><g>
	<g>
		<path d="M453.318,263.186h-22.685c-4.142,0-7.5,3.357-7.5,7.5s3.358,7.5,7.5,7.5h22.685c13.994,0,25.379,11.429,25.379,25.476    c0,14.048-11.385,25.477-25.379,25.477h-22.316h-3.8h-39.129c-19.327,0-35.05,15.76-35.05,35.131v17.94c0,4.143,3.358,7.5,7.5,7.5    c4.142,0,7.5-3.357,7.5-7.5v-17.94c0-11.101,8.994-20.131,20.05-20.131h39.129h3.8h22.316c22.265,0,40.379-18.158,40.379-40.477    C493.697,281.344,475.583,263.186,453.318,263.186z" data-original="#000000" class="active-path" data-old_color="#000000" fill="#1F845B"/>
	</g>
</g><g>
	<g>
		<path d="M378.001,179.266h-13.393c-11.158,0-20.235-9.115-20.235-20.319c0-11.203,9.078-20.317,20.235-20.317    c4.142,0,7.5-3.357,7.5-7.5s-3.358-7.5-7.5-7.5c-19.429,0-35.235,15.844-35.235,35.317c0,19.475,15.807,35.319,35.235,35.319    h13.393c4.142,0,7.5-3.357,7.5-7.5S382.143,179.266,378.001,179.266z" data-original="#000000" class="active-path" data-old_color="#000000" fill="#1F845B"/>
	</g>
</g><g>
	<g>
		<path d="M419.651,179.266h-9.65c-4.142,0-7.5,3.357-7.5,7.5c0,4.142,3.358,7.5,7.5,7.5h9.65c8.679,0,15.74,7.092,15.74,15.81    v15.134c0,4.143,3.358,7.5,7.5,7.5c4.142,0,7.5-3.357,7.5-7.5v-15.134C450.391,193.088,436.601,179.266,419.651,179.266z" data-original="#000000" class="active-path" data-old_color="#000000" fill="#1F845B"/>
	</g>
</g><g>
	<g>
		<path d="M416.737,287.534h-51.276c-14.841,0-26.915-12.12-26.915-27.018s12.074-27.017,26.915-27.017h18.409    c4.142,0,7.5-3.357,7.5-7.5s-3.358-7.5-7.5-7.5h-18.409c-23.112,0-41.915,18.849-41.915,42.017    c0,23.169,18.803,42.018,41.915,42.018h51.276c4.142,0,7.5-3.357,7.5-7.5S420.879,287.534,416.737,287.534z" data-original="#000000" class="active-path" data-old_color="#000000" fill="#1F845B"/>
	</g>
</g></g> </svg>
